<svg width="69" height="67" viewBox="0 0 69 67" fill="none" xmlns="http://www.w3.org/2000/svg">
<path fill-rule="evenodd" clip-rule="evenodd" d="M49.1895 14.004C55.1718 15.352 57.4602 18.7487 60.3292 23.4238H49.1895V14.004ZM14.2283 23.8164C15.3996 23.8164 16.2498 24.3654 16.2498 25.6484C16.2498 26.7306 15.348 27.6083 14.2341 27.6113H2.02148C0.90493 27.6113 0 28.4905 0 29.5742C0 30.6584 0.90493 31.5371 2.02148 31.5371H20.2148C21.3419 31.5371 22.2442 32.4153 22.2442 33.5C22.2442 34.5842 21.3393 35.4629 20.2227 35.4629H2.02148C0.90493 35.4629 0 36.3416 0 37.4258C0 38.51 0.90493 39.3887 2.02148 39.3887H6.46875V45.2773C6.46875 46.3615 7.37368 47.2402 8.49023 47.2402H12.5537C13.2781 50.7049 16.4309 53.2598 20.1475 53.2598C23.864 53.2598 27.0168 50.7049 27.7412 47.2402H48.2666C48.991 50.7049 52.1438 53.2598 55.8604 53.2598C59.5769 53.2598 62.7297 50.7049 63.4541 47.2402H66.9785C68.0951 47.2402 69 46.3615 69 45.2773V33.5C69 27.7407 62.7439 27.3583 62.7381 27.3496H47.168C46.0514 27.3496 45.1465 26.4709 45.1465 25.3867V13.6094H8.49023C7.37368 13.6094 6.46875 14.4881 6.46875 15.5723V19.8906H4.04297C2.92641 19.8906 2.02148 20.7693 2.02148 21.8535C2.02148 22.9377 2.92641 23.8164 4.04297 23.8164H14.2283ZM58.4809 43.1908C59.9281 44.596 59.9281 46.8753 58.4809 48.2805C56.153 50.5409 52.1543 48.9327 52.1543 45.7354C52.1543 42.5385 56.153 40.9304 58.4809 43.1908ZM22.768 43.1908C24.2152 44.596 24.2152 46.8753 22.768 48.2805C20.4402 50.5409 16.4414 48.9327 16.4414 45.7354C16.4414 42.5385 20.4402 40.9304 22.768 43.1908Z" fill="black"/>
</svg>
