<svg width="69" height="66" viewBox="0 0 69 66" fill="none" xmlns="http://www.w3.org/2000/svg">
<path fill-rule="evenodd" clip-rule="evenodd" d="M45.1168 17.7121H59.2025C60.6227 17.7121 61.8341 18.4365 62.3476 19.5931L67.6937 31.6337C67.8518 31.9898 67.9219 32.3166 67.9219 32.6987V39.1159H65.2483C64.6529 39.1159 64.1701 39.5776 64.1701 40.1472C64.1701 40.7167 64.6529 41.1784 65.2483 41.1784H67.9219V47.5956C67.9219 48.6606 67.0138 49.5292 65.9004 49.5292H65.623C65.623 44.5072 61.3655 40.4347 56.1152 40.4347C50.8649 40.4347 46.6073 44.5072 46.6073 49.5292H45.1168V17.7121ZM16.6692 31.0439C16.6692 31.6134 16.1864 32.0752 15.591 32.0752C14.9956 32.0752 14.5129 31.6134 14.5129 31.0439V21.9861C14.5129 21.4166 14.9956 20.9548 15.591 20.9548H19.9774C20.5904 20.9548 21.147 21.1939 21.5498 21.5792C21.9526 21.9645 22.2026 22.4969 22.2026 23.0833V25.4178C22.2026 26.0042 21.9526 26.5366 21.5498 26.9219C21.2025 27.254 20.7411 27.4775 20.2278 27.5329L22.0553 30.5244C22.3553 31.0161 22.1819 31.6473 21.6679 31.9344C21.1539 32.2214 20.4939 32.0555 20.1938 31.5638L17.7396 27.5464H16.6693L16.6692 31.0439ZM16.6692 23.0173V25.4837H19.9774C19.9952 25.4837 20.0123 25.4759 20.0252 25.4634C20.0382 25.4511 20.0464 25.4347 20.0464 25.4177V23.0832C20.0464 23.0662 20.0383 23.0498 20.0252 23.0374C20.0123 23.0251 19.9952 23.0173 19.9774 23.0173H16.6692ZM38.4663 30.0127C39.0617 30.0127 39.5444 30.4744 39.5444 31.0439C39.5444 31.6134 39.0617 32.0752 38.4663 32.0752H32.9328C32.3374 32.0752 31.8547 31.6134 31.8547 31.0439V21.9861C31.8547 21.4166 32.3374 20.9548 32.9328 20.9548H38.4663C39.0617 20.9548 39.5444 21.4166 39.5444 21.9861C39.5444 22.5556 39.0617 23.0173 38.4663 23.0173H34.0109V25.4837H37.3192C37.9146 25.4837 38.3973 25.9454 38.3973 26.5149C38.3973 27.0844 37.9146 27.5462 37.3192 27.5462H34.0109V30.0125H38.4663V30.0127ZM29.7953 30.0127C30.3907 30.0127 30.8735 30.4744 30.8735 31.0439C30.8735 31.6134 30.3907 32.0752 29.7953 32.0752H24.262C23.6666 32.0752 23.1839 31.6134 23.1839 31.0439V21.9861C23.1839 21.4166 23.6666 20.9548 24.262 20.9548H29.7953C30.3907 20.9548 30.8735 21.4166 30.8735 21.9861C30.8735 22.5556 30.3907 23.0173 29.7953 23.0173H25.3401V25.4837H28.6482C29.2436 25.4837 29.7263 25.9454 29.7263 26.5149C29.7263 27.0844 29.2436 27.5462 28.6482 27.5462H25.3401V30.0125H29.7953V30.0127ZM7.99834 31.0439C7.99834 31.6134 7.51561 32.0752 6.92021 32.0752C6.32482 32.0752 5.84209 31.6134 5.84209 31.0439V21.9861C5.84209 21.4166 6.32482 20.9548 6.92021 20.9548H12.4537C13.0491 20.9548 13.5318 21.4166 13.5318 21.9861C13.5318 22.5556 13.0491 23.0173 12.4537 23.0173H7.99834V25.4837H11.3066C11.902 25.4837 12.3847 25.9454 12.3847 26.5149C12.3847 27.0844 11.902 27.5462 11.3066 27.5462H7.99834V31.0439ZM17.3407 42.4972C21.4011 42.4972 24.6923 45.6455 24.6923 49.5292C24.6923 53.4129 21.4009 56.5612 17.3407 56.5612C13.2805 56.5612 9.9891 53.4129 9.9891 49.5292C9.9891 45.6455 13.2805 42.4972 17.3407 42.4972ZM56.1152 42.4972C52.055 42.4972 48.7636 45.6455 48.7636 49.5292C48.7636 53.4129 52.055 56.5612 56.1152 56.5612C60.1754 56.5612 63.4668 53.4129 63.4668 49.5292C63.4668 45.6455 60.1754 42.4972 56.1152 42.4972ZM56.1152 45.9843C54.0669 45.9843 52.4091 47.5701 52.4091 49.5292C52.4091 51.4885 54.0669 53.0741 56.1152 53.0741C58.1635 53.0741 59.8214 51.4885 59.8214 49.5292C59.8214 47.57 58.1635 45.9843 56.1152 45.9843ZM17.3407 45.9843C15.2925 45.9843 13.6348 47.5701 13.6348 49.5292C13.6348 51.4885 15.2925 53.0741 17.3407 53.0741C19.389 53.0741 21.0469 51.4885 21.0469 49.5292C21.0469 47.57 19.389 45.9843 17.3407 45.9843ZM42.9607 49.5291C42.9607 37.0249 42.9607 24.5209 42.9607 12.0167C42.9607 10.5968 41.7499 9.43872 40.2654 9.43872H3.7733C2.28886 9.43872 1.07812 10.5969 1.07812 12.0167V46.9511C1.07812 48.371 2.28899 49.5292 3.7733 49.5292H7.83285C7.83285 44.5072 12.0904 40.4347 17.3407 40.4347C22.591 40.4347 26.8485 44.5072 26.8485 49.5292L42.9607 49.5291ZM65.8614 30.8397L62.141 22.4603C61.9251 21.974 61.4529 21.6751 60.9006 21.6751H49.7993C49.0572 21.6751 48.4516 22.2543 48.4516 22.9642V30.4471C48.4516 31.1568 49.057 31.7362 49.7993 31.7362H65.2414C65.4744 31.7362 65.6747 31.6332 65.8032 31.4473C65.9317 31.2615 65.9524 31.0448 65.8614 30.8397Z" fill="black"/>
</svg>
