<svg width="55" height="52" viewBox="0 0 55 52" fill="none" xmlns="http://www.w3.org/2000/svg">
<path d="M11.3867 52H43.6133C46.2788 52 48.4473 49.9499 48.4473 47.4297V15.2344H37.168C34.5024 15.2344 32.334 13.1842 32.334 10.6641V0H11.3867C8.72115 0 6.55273 2.05014 6.55273 4.57031V47.4297C6.55273 49.9499 8.72115 52 11.3867 52ZM17.832 21.4297H37.168C38.0586 21.4297 38.7793 22.1111 38.7793 22.9531C38.7793 23.7952 38.0586 24.4766 37.168 24.4766H17.832C16.9414 24.4766 16.2207 23.7952 16.2207 22.9531C16.2207 22.1111 16.9414 21.4297 17.832 21.4297ZM17.832 27.5234H37.168C38.0586 27.5234 38.7793 28.2048 38.7793 29.0469C38.7793 29.8889 38.0586 30.5703 37.168 30.5703H17.832C16.9414 30.5703 16.2207 29.8889 16.2207 29.0469C16.2207 28.2048 16.9414 27.5234 17.832 27.5234ZM17.832 33.6172H37.168C38.0586 33.6172 38.7793 34.2986 38.7793 35.1406C38.7793 35.9827 38.0586 36.6641 37.168 36.6641H17.832C16.9414 36.6641 16.2207 35.9827 16.2207 35.1406C16.2207 34.2986 16.9414 33.6172 17.832 33.6172ZM17.832 39.7109H30.7227C31.6133 39.7109 32.334 40.3923 32.334 41.2344C32.334 42.0764 31.6133 42.7578 30.7227 42.7578H17.832C16.9414 42.7578 16.2207 42.0764 16.2207 41.2344C16.2207 40.3923 16.9414 39.7109 17.832 39.7109Z" fill="black"/>
<path d="M37.168 12.1874H47.5031L35.5566 0.892578V10.664C35.5566 11.5045 36.2789 12.1874 37.168 12.1874Z" fill="black"/>
</svg>
