<svg width="59" height="53" viewBox="0 0 59 53" fill="none" xmlns="http://www.w3.org/2000/svg">
<path d="M17.7744 12.8897H15.4912V10.8387C15.4912 9.98122 14.7174 9.28601 13.7627 9.28601C12.8082 9.28601 12.0342 9.98122 12.0342 10.8387V14.4423C12.0343 15.3 12.8082 15.9952 13.7628 15.9952H17.7744C18.7291 15.9952 19.5029 15.3 19.5029 14.4424C19.5029 13.5849 18.7291 12.8897 17.7744 12.8897Z" fill="black"/>
<path d="M13.7629 2.07898C6.17403 2.07898 0 7.62514 0 14.4423C0 21.2592 6.17403 26.8052 13.7629 26.8052C21.3517 26.8052 27.5258 21.2592 27.5258 14.4422C27.5258 7.62514 21.3518 2.07898 13.7629 2.07898ZM13.7629 23.7C8.08012 23.6998 3.45703 19.5469 3.45703 14.4423C3.45703 9.3375 8.08012 5.18445 13.7629 5.18445C19.4456 5.18445 24.0688 9.3375 24.0688 14.4423C24.0688 19.5469 19.4457 23.7 13.7629 23.7Z" fill="black"/>
<path d="M58.8227 28.7286C58.8204 28.7245 58.8198 28.7203 58.8175 28.7163L53.2633 18.7373C52.9705 18.2113 52.3721 17.879 51.7173 17.879H38.6344V14.4424C38.6344 13.5849 37.8606 12.8896 36.9059 12.8896H30.8964C30.9533 13.4005 30.9828 13.9183 30.9828 14.4424C30.9828 22.9717 23.2581 29.9109 13.7629 29.9109C8.14373 29.9109 3.14509 27.4805 0 23.7286V44.379C0 45.2365 0.773914 45.9317 1.72852 45.9317H9.46604C10.2443 48.7918 13.1198 50.9211 16.5399 50.9211C19.9603 50.9211 22.8358 48.7918 23.6138 45.9317H35.3864C36.1645 48.7918 39.0399 50.9211 42.4601 50.9211C45.8802 50.9211 48.7557 48.7918 49.534 45.9317H57.2715C58.2262 45.9317 59 45.2365 59 44.379V29.4106C59 29.1655 58.9352 28.9347 58.8227 28.7286ZM16.5399 47.8155C14.4303 47.8155 12.7143 46.2738 12.7143 44.3789C12.7143 42.4839 14.4305 40.9423 16.5399 40.9423C18.6494 40.9423 20.3658 42.4839 20.3658 44.3789C20.3658 46.2738 18.6495 47.8155 16.5399 47.8155ZM42.4601 47.8155C40.3505 47.8155 38.6344 46.2738 38.6344 44.3789C38.6344 42.4839 40.3506 40.9423 42.4601 40.9423C44.5695 40.9423 46.2857 42.4839 46.2857 44.3789C46.2857 46.2738 44.5695 47.8155 42.4601 47.8155ZM38.6344 27.8578V20.9844H50.6492L54.4749 27.8578H38.6344Z" fill="black"/>
</svg>
