<svg width="58" height="56" viewBox="0 0 58 56" fill="none" xmlns="http://www.w3.org/2000/svg">
<path d="M28.9995 0C17.2266 0 7.64746 9.2488 7.64746 20.617C7.64746 23.5822 8.27606 26.4134 9.51485 29.0325C14.8535 40.3118 25.0891 52.2204 28.0997 55.6011C28.3252 55.8539 28.6541 55.9994 29.0001 55.9994C29.3462 55.9994 29.675 55.8539 29.9006 55.6011C32.91 52.2209 43.1456 40.3129 48.486 29.0325C49.7254 26.4134 50.3534 23.5822 50.3534 20.617C50.3522 9.2488 40.7731 0 28.9995 0ZM28.9995 31.3255C22.8839 31.3255 17.908 26.5211 17.908 20.6164C17.908 14.7111 22.8839 9.90673 28.9995 9.90673C35.1151 9.90673 40.0911 14.7111 40.0911 20.6164C40.0917 26.5211 35.1157 31.3255 28.9995 31.3255Z" fill="black"/>
</svg>
