<svg width="16" height="16" viewBox="0 0 16 16" fill="none" xmlns="http://www.w3.org/2000/svg">
<g clip-path="url(#clip0_6_397)">
<path d="M0.899134 9.25471L0.874165 9.24924L11.5778 9.24944L8.21288 12.6225C8.04811 12.7872 7.95772 13.0103 7.95772 13.2444C7.95771 13.4786 8.04809 13.7001 8.21286 13.8652L8.73642 14.3892C8.90105 14.5538 9.12044 14.6449 9.35439 14.6449C9.58848 14.6449 9.808 14.5545 9.97264 14.3898L15.7407 8.62097C15.906 8.45563 15.9964 8.23541 15.9957 8.00113C15.9964 7.76556 15.906 7.5452 15.7407 7.38012L9.97287 1.61052C9.80824 1.44596 9.58885 1.35542 9.35464 1.35542C9.12069 1.35541 8.9013 1.44607 8.73665 1.61049L8.21308 2.13445C8.04831 2.29887 7.95792 2.51845 7.95791 2.75259C7.95791 2.98661 8.04829 3.19461 8.21305 3.35917L11.6158 6.75123L0.887216 6.75103C0.405134 6.75102 3.22668e-05 7.16662 2.33034e-05 7.64857L9.52089e-06 8.38965C5.57552e-07 8.8716 0.417052 9.2547 0.899134 9.25471Z" fill="#C1C1C4"/>
</g>
<defs>
<clipPath id="clip0_6_397">
<rect width="15.9957" height="16" fill="white" transform="translate(15.9956 16.0003) rotate(-179.999)"/>
</clipPath>
</defs>
</svg>
