<svg width="20" height="20" viewBox="0 0 20 20" fill="none" xmlns="http://www.w3.org/2000/svg">
<g clip-path="url(#clip0_102_176)">
<path d="M19.437 18.657L11.1581 11.1686C10.4864 10.5855 9.51188 10.5856 8.84125 11.1698L0.563047 18.657C0.500515 18.7117 0.45036 18.7791 0.415926 18.8547C0.381492 18.9302 0.363571 19.0123 0.363359 19.0954C0.361484 19.6409 1.19816 20 1.75781 20H18.2031C18.7628 20 19.6385 19.6409 19.6366 19.0954C19.6364 19.0123 19.6185 18.9302 19.5841 18.8547C19.5496 18.7791 19.4995 18.7117 19.437 18.657ZM0.972188 8.14684C0.599258 7.81848 0 8.07985 0 8.58742V17.5925L5.76254 12.3063L0.972188 8.14684ZM19.0278 8.14684L14.2378 12.306L20 17.593V8.58742C20 8.08086 19.4021 7.81844 19.0278 8.14684Z" fill="#CD2027"/>
<path d="M16.4454 5.25066V3.89992C16.4454 3.57605 16.1834 3.31398 15.8595 3.31398H14.2398L11.1583 0.437188C10.4865 -0.146484 9.51262 -0.145351 8.84082 0.438321L5.76043 3.31398H4.14074C3.81687 3.31398 3.5548 3.57605 3.5548 3.89992V5.25066L1.42676 7.07516C1.53578 7.13566 1.65172 7.18379 1.74648 7.26734L2.36652 7.81024L3.5548 6.80672V8.81621L6.65242 11.528L8.07008 10.288C9.18617 9.31512 10.8172 9.32074 11.9262 10.2834L13.348 11.5274L16.4454 8.81586V6.80672L17.5944 7.81L18.217 7.26504C18.3111 7.18242 18.4262 7.135 18.5343 7.075L16.4454 5.25066ZM9.61102 1.3218C9.83531 1.12438 10.1626 1.12555 10.3881 1.32066L12.4583 3.31398H7.54191L9.61102 1.3218ZM13.5157 9.17336H6.48449C6.16063 9.17336 5.89855 8.91129 5.89855 8.58742C5.89855 8.26356 6.16063 8.00148 6.48449 8.00148H13.5157C13.8396 8.00148 14.1017 8.26356 14.1017 8.58742C14.1017 8.91129 13.8396 9.17336 13.5157 9.17336ZM13.5157 6.82961H6.48449C6.16063 6.82961 5.89855 6.56754 5.89855 6.24367C5.89855 5.91981 6.16063 5.65773 6.48449 5.65773H13.5157C13.8396 5.65773 14.1017 5.91981 14.1017 6.24367C14.1017 6.56754 13.8396 6.82961 13.5157 6.82961Z" fill="#CD2027"/>
</g>
<defs>
<clipPath id="clip0_102_176">
<rect width="20" height="20" fill="white"/>
</clipPath>
</defs>
</svg>
